<?xml version="1.0" encoding="UTF-8" standalone="no"?>
<!-- Created with Inkscape (http://www.inkscape.org/) -->

<svg
   xmlns:dc="http://purl.org/dc/elements/1.1/"
   xmlns:cc="http://creativecommons.org/ns#"
   xmlns:rdf="http://www.w3.org/1999/02/22-rdf-syntax-ns#"
   xmlns:svg="http://www.w3.org/2000/svg"
   xmlns="http://www.w3.org/2000/svg"
   xmlns:sodipodi="http://sodipodi.sourceforge.net/DTD/sodipodi-0.dtd"
   xmlns:inkscape="http://www.inkscape.org/namespaces/inkscape"
   width="833.44458mm"
   height="131.41556mm"
   viewBox="0 0 2953.1501 465.64568"
   id="svg2"
   version="1.1"
   inkscape:version="0.91 r13725"
   sodipodi:docname="Logo.svg">
  <defs
     id="defs4" />
  <sodipodi:namedview
     id="base"
     pagecolor="#ffffff"
     bordercolor="#666666"
     borderopacity="1.0"
     inkscape:pageopacity="0.0"
     inkscape:pageshadow="2"
     inkscape:zoom="0.35"
     inkscape:cx="1658.95"
     inkscape:cy="224.40417"
     inkscape:document-units="px"
     inkscape:current-layer="layer1"
     showgrid="false"
     inkscape:window-width="1280"
     inkscape:window-height="705"
     inkscape:window-x="-8"
     inkscape:window-y="-8"
     inkscape:window-maximized="1"
     fit-margin-top="0"
     fit-margin-left="0"
     fit-margin-right="0"
     fit-margin-bottom="0" />
  <metadata
     id="metadata7">
    <rdf:RDF>
      <cc:Work
         rdf:about="">
        <dc:format>image/svg+xml</dc:format>
        <dc:type
           rdf:resource="http://purl.org/dc/dcmitype/StillImage" />
        <dc:title></dc:title>
      </cc:Work>
    </rdf:RDF>
  </metadata>
  <g
     inkscape:label="Layer 1"
     inkscape:groupmode="layer"
     id="layer1"
     transform="translate(1922.5214,-291.1207)">
    <path
       style="fill:#006633;fill-opacity:1"
       d="m -1714.6794,755.83583 c -53.0316,-6.09953 -99.6072,-28.03795 -137.3559,-64.69862 -37.6918,-36.60535 -60.5284,-81.3146 -68.7989,-134.69344 -2.0264,-13.07856 -2.2925,-50.23688 -0.4438,-61.9803 8.8346,-56.12201 30.0049,-98.71703 67.637,-136.08694 50.2204,-49.87047 120.6735,-73.99774 191.6216,-65.62246 54.2641,6.40578 107.6114,33.84223 143.8615,73.9878 33.3141,36.89404 52.4091,78.17152 59.5155,128.65364 1.7936,12.74157 1.5057,47.89685 -0.5001,61.04826 -7.978,52.31111 -31.3924,98.31579 -68.3274,134.25005 -20.694,20.13333 -42.5979,35.12775 -67.3397,46.09769 -8.8984,3.94531 -24.7116,9.74732 -30.1615,11.06649 l -2.5631,0.62041 0,-36.72964 0,-36.72964 7.119,-3.38078 c 39.0283,-18.53446 70.3212,-53.18183 84.2673,-93.30047 3.0201,-8.6879 5.7962,-19.46545 7.5601,-29.35038 1.8953,-10.62113 1.596,-40.99856 -0.5188,-52.65996 -6.6365,-36.59514 -25.6751,-70.66064 -52.7579,-94.39901 -49.4811,-43.37079 -118.807,-53.19389 -178.0186,-25.22425 -46.1917,21.81942 -79.3243,64.22282 -90.15,115.37471 -2.2036,10.412 -2.4833,13.8152 -2.5323,30.81154 -0.059,20.51725 0.6086,26.18895 5.1142,43.43222 10.9864,42.04681 40.1238,79.18626 79.0231,100.72549 9.9139,5.48954 23.9568,11.26967 34.409,14.16298 l 6.7572,1.8705 0,-94.07612 0,-94.07611 -20.5047,0 -20.5048,0 0,-24.19067 0,-24.19066 3.4951,-0.54852 c 8.2665,-1.29732 16.9396,-3.65887 22.2637,-6.06211 15.8005,-7.13206 28.9767,-20.52107 36.1442,-36.72792 l 2.3048,-5.21172 26.6143,0 26.6143,0 0,177.93668 0,177.93669 -3.4952,0.55066 c -15.2239,2.39856 -45.6006,3.11025 -60.3492,1.41391 z m 721.07906,-124.95539 c -22.94276,-2.76138 -40.75736,-17.67916 -46.20026,-38.68786 -0.816,-3.14971 -1.4838,-7.86814 -1.4838,-10.48539 l 0,-4.75866 14.3265,0 14.3264,0 0.596,4.42717 c 1.232,9.15283 6.5061,17.03452 14.07855,21.03918 5.71365,3.02169 17.09426,2.84972 23.32407,-0.35245 10.93258,-5.61937 14.25594,-21.08115 6.4001,-29.77654 -4.45028,-4.92596 -8.97922,-7.38266 -23.18772,-12.57809 -23.2035,-8.48452 -33.7987,-15.75363 -38.9284,-26.7079 -8.2127,-17.53785 -4.717,-37.19308 9.0087,-50.65288 18.4321,-18.07507 49.72581,-18.56175 69.17439,-1.07581 7.32458,6.58545 13.36501,19.57513 13.39418,28.80384 l 0.0112,3.49513 -14.37244,0 -14.37253,0 -0.64143,-3.02911 c -2.21414,-10.45666 -10.68288,-16.45038 -21.64482,-15.31901 -12.11275,1.25014 -18.99635,11.94176 -14.39115,22.35243 2.7157,6.13956 7.48113,9.13341 21.85674,13.73153 16.91429,5.41014 25.80217,10.02953 33.3881,17.35313 9.96717,9.62247 13.90567,19.08683 13.90567,33.41558 0,14.02022 -4.51347,25.60697 -13.47918,34.60321 -11.12877,11.16661 -27.49101,16.32055 -45.08876,14.2025 z m 482.1777,0.0749 c -19.99895,-1.67043 -35.2462,-8.69066 -49.48405,-22.78367 -12.16958,-12.04584 -18.93531,-24.59154 -22.33044,-41.40712 -2.0378,-10.09279 -1.45332,-28.23053 1.21855,-37.81582 8.66904,-31.09978 30.62414,-52.46976 60.34355,-58.73528 10.65829,-2.247 27.73549,-2.09045 36.94185,0.33865 11.6797,3.08172 19.85486,7.76397 28.06757,16.07549 l 7.22327,7.31014 0,-10.68855 0,-10.68854 14.44654,0 14.44654,0 0,77.35887 0,77.35887 -14.44654,0 -14.44654,0 -0.0298,-11.88344 -0.0298,-11.88344 -1.99381,2.7961 c -1.09654,1.53786 -4.63706,5.42712 -7.86777,8.64281 -12.11608,12.05957 -30.74111,17.78557 -52.05963,16.00493 z m 20.27855,-27.41277 c 26.94624,-5.71016 45.54472,-33.01161 41.68619,-61.19279 -4.088,-29.8572 -27.64863,-49.23096 -57.3234,-47.13677 -22.94762,1.61943 -40.97168,17.43007 -47.07502,41.29404 -4.84024,18.92524 0.60713,38.84786 14.44244,52.81997 12.79227,12.91877 30.19867,18.045 48.26979,14.21555 z m 309.11135,27.31453 c -21.40334,-1.92225 -41.72803,-12.9585 -55.50537,-30.13922 -15.62546,-19.48536 -21.98231,-44.18971 -17.2473,-67.02767 4.12025,-19.87239 17.09734,-39.26083 33.99606,-50.79157 23.74461,-16.20202 55.43491,-18.9758 82.65125,-7.23426 9.66026,4.16759 17.01299,9.18524 24.76183,16.89809 25.329721,25.212 31.197159,61.11549 15.203164,93.02988 -4.361454,8.7028 -10.050314,16.24133 -17.841104,23.64177 -17.42746,16.55444 -40.02911,23.95711 -66.01853,21.62298 z m 26.03089,-28.68644 c 17.24059,-5.827 31.3667,-21.18722 36.05278,-39.20266 2.13939,-8.22487 1.47112,-23.2848 -1.3947,-31.4308 -10.89064,-30.9562 -46.51617,-45.41912 -75.7884,-30.76791 -20.47708,10.24914 -33.08396,34.26252 -29.64019,56.45823 3.48143,22.43842 18.98872,40.06623 40.34144,45.85777 8.81304,2.39038 21.80589,1.99985 30.42907,-0.91463 z m 316.11018,28.74998 C 148.9639,629.98454 141.5024,627.87606 130.74924,622.6244 114.66586,614.7695 103.25487,603.23547 95.345905,586.83923 85.998436,567.46072 84.408012,545.71642 90.844923,525.3002 101.07894,492.84041 125.7595,472.656 159.87532,468.84525 c 22.1719,-2.4766 41.29287,3.70597 55.45607,17.9312 l 7.22327,7.25488 0,-10.73535 0,-10.73535 14.44653,0 14.44654,0 0,77.35887 0,77.35887 -14.44654,0 -14.44653,0 -0.0438,-11.88344 -0.0438,-11.88344 -2.46774,3.26212 c -13.69821,18.10765 -34.05925,26.31687 -59.89106,24.14703 z m 25.47773,-28.71715 c 18.36127,-6.44327 32.60807,-22.57261 36.10013,-40.87034 1.59713,-8.36862 0.64235,-23.4527 -1.9529,-30.85405 -2.6288,-7.49684 -9.93241,-18.47712 -15.10334,-22.70634 -17.04999,-13.94496 -41.21681,-16.78117 -59.81342,-7.01967 -7.32374,3.84427 -17.02957,13.50543 -21.30342,21.20537 -8.66168,15.60523 -9.65634,35.25269 -2.57158,50.79589 7.01571,15.39181 20.3453,26.76224 36.03796,30.74112 7.40856,1.87844 21.36858,1.24796 28.60657,-1.29198 z m 429.82121,28.72366 c -19.27485,-1.68281 -35.02922,-8.61334 -48.21378,-21.20981 -16.66991,-15.92626 -24.95094,-35.61817 -24.95094,-59.33182 0,-39.61719 25.66143,-72.31875 62.91234,-80.17208 10.74216,-2.26468 27.7298,-2.0916 37.09544,0.37795 11.30269,2.9803 19.60274,7.76838 27.91397,16.10287 l 7.22327,7.24346 0,-10.68855 0,-10.68854 14.44654,0 14.44654,0 0,77.35887 0,77.35887 -14.44654,0 -14.44654,0 -0.0298,-11.88344 -0.0298,-11.88344 -1.99381,2.7961 c -1.09653,1.53786 -4.5501,5.34229 -7.67456,8.45429 -12.23295,12.18406 -31.07757,18.01398 -52.25284,16.16527 z m 25.74242,-29.03397 c 12.19391,-4.45928 20.51259,-10.8811 27.27823,-21.05814 11.4425,-17.21201 12.43996,-39.61211 2.59964,-58.38111 -15.91664,-30.35848 -58.899,-36.95829 -83.02127,-12.74766 -27.19882,27.29843 -20.25312,73.01186 13.67462,89.99939 11.46804,5.74203 27.34301,6.62188 39.46878,2.18752 z m -1942.47169,-78.07065 0,-103.45584 52.1939,0 52.194,0 0,13.98052 0,13.98052 -37.2814,0 -37.2814,0 0,30.75714 0,30.75714 37.2814,0 37.2814,0 0,13.98052 0,13.98052 -37.2814,0 -37.2814,0 0,44.73766 0,44.73766 -14.9126,0 -14.9125,0 0,-103.45584 z m 126.7567,26.09697 0,-77.35887 14.4465,0 14.4466,0 0,77.35887 0,77.35887 -14.4466,0 -14.4465,0 0,-77.35887 z m 61.5143,0 0,-77.35887 13.5145,0 13.5145,0 0,6.92947 0,6.92948 4.9188,-4.91884 c 7.3682,-7.36821 17.801,-11.76878 30.7315,-12.96258 l 4.4272,-0.40873 0,15.26409 0,15.26408 -3.093,0 c -3.9347,0 -11.9811,2.37784 -17.4957,5.17027 -8.0391,4.07076 -13.6294,12.69006 -16.1522,24.90363 -1.2251,5.93094 -1.4725,14.80992 -1.4725,52.83788 l 0,45.70899 -14.4466,0 -14.4465,0 0,-77.35887 z m 209.4812,13.28149 -0.23944,-64.07737 -10.48539,-0.26354 -10.48539,-0.26353 0,-13.01796 0,-13.01796 10.7184,0 10.7184,0 0,-26.09697 0,-26.09697 14.44654,0 14.44653,0 0,26.09697 0,26.09697 12.58247,0 12.58247,0 0,13.04848 0,13.04849 -12.58247,0 -12.58247,0 0,64.31039 0,64.31038 -14.4401,0 -14.44011,0 -0.23944,-64.07738 z m 135.37161,-39.39996 0,-103.47735 16.48005,0.25452 16.48014,0.25451 49.74241,77.82489 c 27.35829,42.80369 50.1402,78.22333 50.62635,78.71032 0.55736,0.55821 0.88404,-28.28836 0.88404,-78.0579 l 0,-78.94333 14.91255,0 14.91256,0 0,103.45584 0,103.45584 -15.71765,0 -15.71755,0 -51.15594,-79.92196 -51.15584,-79.92197 -0.23823,79.92197 -0.23822,79.92196 -14.90734,0 -14.90733,0 0,-103.47734 z m 391.45456,39.16696 0,-64.31039 -10.7184,0 -10.7184,0 0,-13.04849 0,-13.04848 10.7184,0 10.7184,0 0,-26.09697 0,-26.09697 14.44653,0 14.44654,0 0,26.09697 0,26.09697 12.58247,0 12.58247,0 0,13.04848 0,13.04849 -12.58247,0 -12.58247,0 0,64.31039 0,64.31038 -14.44654,0 -14.44653,0 0,-64.31038 z m 71.76666,-13.04849 0,-77.35887 14.44654,0 14.44654,0 0,77.35887 0,77.35887 -14.44654,0 -14.44654,0 0,-77.35887 z m 234.872741,0 0,-77.35887 13.514502,0 13.514503,0 0,7.92229 c 0,4.35727 0.17252,7.9223 0.383346,7.9223 0.210826,0 2.754908,-2.31541 5.653443,-5.14535 10.245391,-10.00265 23.386427,-14.74511 40.5649443,-14.63944 25.9392707,0.15958 47.2412957,12.22616 56.7476767,32.14491 6.923899,14.50752 6.905538,14.32285 7.311905,73.62007 l 0.362375,52.89296 -14.43032,0 -14.430413,0 -0.410189,-49.16482 c -0.289956,-34.76268 -0.748983,-50.52996 -1.566843,-53.825 -5.035504,-20.28737 -19.481668,-30.69943 -40.3901884,-29.11119 -20.9348966,1.59026 -33.9013626,15.23338 -36.9682226,38.89755 -0.498266,3.84465 -0.9188,26.38823 -0.934645,50.09686 l -0.0288,43.1066 -14.446537,0 -14.446537,0 0,-77.35887 z m 349.512999,-26.09697 0,-103.45584 14.44654,0 14.44654,0 0,103.45584 0,103.45584 -14.44654,0 -14.44654,0 0,-103.45584 z m 119.30044,-0.079 0,-103.53488 34.25227,0.38337 c 31.50212,0.35259 34.83909,0.54471 41.56129,2.39291 26.81827,7.37345 41.85787,27.1806 41.889,55.16793 0.0158,14.62121 -3.59663,23.94726 -13.03777,33.65459 l -5.08416,5.22753 4.44022,2.60216 c 6.38322,3.7408 16.19587,13.98951 19.62408,20.49602 4.83017,9.16747 6.30037,15.50151 6.2738,27.029 -0.028,12.21865 -1.71075,19.26453 -7.05923,29.56281 -7.5273,14.49329 -22.3295,24.88261 -40.91539,28.71747 -7.81529,1.61254 -12.79683,1.81281 -45.36175,1.82371 l -36.58236,0.0122 0,-103.53486 z m 69.40769,75.53025 c 15.09672,-2.18173 25.08161,-10.375 28.97807,-23.77853 3.0087,-10.34933 -0.0252,-21.96623 -7.99601,-30.61308 -8.02231,-8.70315 -16.32273,-10.75922 -43.55501,-10.78877 l -17.00963,-0.0185 0,33.08723 0,33.08723 16.54361,-0.0185 c 9.09899,-0.0102 19.46648,-0.44088 23.03897,-0.95715 z m -7.42739,-93.19646 c 16.59162,-2.36933 25.63096,-12.35997 25.63096,-28.32834 0,-9.19132 -2.17696,-14.94316 -7.7742,-20.54041 -7.30603,-7.30597 -10.55203,-8.18217 -32.07029,-8.6567 l -17.94166,-0.39566 0,29.44486 0,29.44486 12.81547,-0.0184 c 7.04852,-0.0102 15.75139,-0.43772 19.33972,-0.95015 z m 277.28032,43.84221 0,-77.35887 13.5145,0 13.5145,0 0,8.00486 0,8.00487 6.21183,-5.69198 c 11.22654,-10.28711 22.86933,-14.40095 40.38991,-14.27131 19.83472,0.14675 33.35845,5.52426 46.16377,18.3564 10.94982,10.97285 15.19496,20.79249 17.19417,39.77312 0.5061,4.80501 0.92738,29.39259 0.93632,54.63908 l 0.0161,45.9027 -14.91256,0 -14.91255,0 -0.0159,-48.23279 c -0.0177,-53.32102 -0.27476,-56.32033 -5.69622,-66.49204 -3.68005,-6.90434 -9.54105,-12.22204 -16.51929,-14.98783 -4.34244,-1.72109 -7.13864,-2.09344 -15.98169,-2.12815 -10.14352,-0.0398 -11.05235,0.11612 -16.94402,2.90736 -10.92484,5.17572 -17.47583,13.09744 -21.84018,26.40965 -1.51353,4.6168 -1.71289,9.96531 -2.00602,53.825 l -0.32546,48.6988 -14.39351,0 -14.39341,0 0,-77.35887 z m 165.90217,-26.09697 0,-103.45584 14.44653,0 14.44654,0 0,103.45584 0,103.45584 -14.44654,0 -14.44653,0 0,-103.45584 z m 60.58225,64.13665 c -16.66012,-21.59079 -30.29113,-39.93934 -30.29113,-40.77457 0,-0.83522 12.13845,-17.9673 26.97421,-38.07128 l 26.97429,-36.5527 17.12778,0 17.1279,0 -1.8404,2.56309 c -1.0123,1.40971 -13.6049,17.85118 -27.98345,36.5366 l -26.14283,33.9735 3.06341,3.7739 c 12.05112,14.84598 61.16467,76.97539 61.16467,77.37415 0,0.27308 -8.0737,0.48228 -17.9417,0.4649 l -17.94162,-0.0316 -30.29113,-39.25598 z m -2139.01955,-150.34985 0,-17.24264 14.4465,0 14.4466,0 0,17.24264 0,17.24264 -14.4466,0 -14.4465,0 0,-17.24264 z m 870.20972,16.62128 c -0.34177,-0.34174 -0.62139,-8.10092 -0.62139,-17.24264 l 0,-16.62128 14.44654,0 14.44654,0 0,17.24264 0,17.24264 -13.82515,0 c -7.60391,0 -14.10485,-0.27961 -14.44654,-0.62136 z"
       id="path3796"
       inkscape:connector-curvature="0" />
  </g>
</svg>
